PathFileType	4	(X/Y/Z)	C:/Users/opensim2020/Desktop/walking_exp_matlab/subject06_walking17_straight_04.trc	
DataRate	CameraRate	NumFrames	NumMarkers	Units	OrigDataRate	OrigDataStartFrame	OrigNumFrames	
100.00	100.00	4	45	mm	100.00	4445	318	
Frame#	Time	LFHD			RFHD			LBHD			RBHD			C7			T10			CLAV			STRN			RBAK			LSHO			LUPA			LELB			LFRM			LWRA			LWRB			LFIN			RSHO			RUPA			RELB			RFRM			RWRA			RWRB			RFIN			LASI			RASI			LPSI			RPSI			LTHI			LKNE			LTIB			LANK			LHEE			LTOE			RTHI			RKNE			RTIB			RANK			RHEE			RTOE			*39			*40			*41			*42			*43			*44			
		X1	Y1	Z1	X2	Y2	Z2	X3	Y3	Z3	X4	Y4	Z4	X5	Y5	Z5	X6	Y6	Z6	X7	Y7	Z7	X8	Y8	Z8	X9	Y9	Z9	X10	Y10	Z10	X11	Y11	Z11	X12	Y12	Z12	X13	Y13	Z13	X14	Y14	Z14	X15	Y15	Z15	X16	Y16	Z16	X17	Y17	Z17	X18	Y18	Z18	X19	Y19	Z19	X20	Y20	Z20	X21	Y21	Z21	X22	Y22	Z22	X23	Y23	Z23	X24	Y24	Z24	X25	Y25	Z25	X26	Y26	Z26	X27	Y27	Z27	X28	Y28	Z28	X29	Y29	Z29	X30	Y30	Z30	X31	Y31	Z31	X32	Y32	Z32	X33	Y33	Z33	X34	Y34	Z34	X35	Y35	Z35	X36	Y36	Z36	X37	Y37	Z37	X38	Y38	Z38	X39	Y39	Z39	X40	Y40	Z40	X41	Y41	Z41	X42	Y42	Z42	X43	Y43	Z43	X44	Y44	Z44	X45	Y45	Z45	

160	1.590	1507.33179	348.14444	1671.78455	1376.31738	347.37228	1655.90820	1507.97595	480.13455	1613.87561	1379.85217	477.96472	1603.93262	1449.85608	478.46399	1456.91638	1435.07336	517.78589	1128.94336	1456.14172	369.22546	1378.58350	1460.64111	334.18607	1202.09143	1360.55273	546.35028	1289.52234	1613.47766	438.01480	1407.42590	1684.79065	467.24396	1206.57349	1694.53467	483.73370	1095.34766	1711.64600	467.87479	945.21075	1661.47217	416.53571	829.08649	1702.90601	475.66882	825.68152	1700.70374	436.50156	742.56946	1292.78259	402.20264	1415.59778	1197.79956	433.53699	1219.41821	1185.03625	419.90524	1098.40820	1175.43372	379.56329	985.47369	1222.59631	293.38696	866.85980	1176.10474	340.61624	854.06885	1182.88306	286.86649	789.41504	1549.51794	342.95508	969.43237	1330.16028	340.63358	970.63165	1519.89905	500.89551	993.25922	1351.53186	491.53174	997.91125	1613.95105	350.47903	658.73871	1585.85229	299.61969	503.29083	1587.03955	331.98871	253.01570	1553.65027	334.06778	79.01363	1509.12183	375.25491	61.45785	1545.48389	191.59058	52.34556	1289.41870	419.75391	634.66101	1316.20886	432.98523	509.87390	1333.49609	514.24237	254.49271	1388.94641	550.29407	73.13847	1436.84351	589.58258	50.83581	1380.07190	400.81158	37.04280	1445.69153	448.86075	1705.25244															 
161	1.600	1507.67065	341.10962	1670.94312	1376.61365	340.23880	1655.14526	1508.18359	473.17935	1613.09485	1379.99316	470.89957	1603.26428	1449.69580	471.34955	1456.02039	1434.64209	510.63495	1128.08765	1456.12634	362.18246	1377.80298	1460.47717	327.06619	1201.40881	1360.21021	539.18933	1288.79919	1613.42883	431.39398	1406.41980	1684.10840	461.91837	1205.68140	1693.42651	479.45026	1094.57129	1710.13623	465.27530	944.11017	1659.36206	415.01782	827.57196	1700.76208	474.15732	824.70453	1698.33521	435.91602	741.24438	1292.71606	394.89716	1414.90796	1197.54419	426.39200	1218.84033	1184.95447	413.08118	1097.76990	1175.42651	372.80209	984.79736	1222.78052	286.61340	866.23267	1176.21899	333.81909	853.45050	1183.07239	280.17969	788.79633	1549.28845	335.58066	968.76190	1329.89502	333.46780	969.66064	1519.69055	494.08423	992.67456	1351.33459	484.45874	997.06653	1614.52698	343.48251	658.18591	1586.11804	292.53043	502.77264	1586.35999	317.07956	251.40675	1552.06360	312.38834	77.44640	1507.60657	353.08276	59.33556	1544.68970	168.97932	54.65790	1289.47693	414.39615	633.77563	1316.24097	428.34186	509.05438	1333.60144	511.94110	254.35014	1389.02295	549.81842	73.31151	1436.87708	589.37152	51.24543	1379.99829	400.34280	36.71976	1445.94824	441.73825	1704.48096															 
162	1.610	1508.02869	334.11856	1670.02148	1376.93616	333.10312	1654.35840	1508.43872	466.19473	1612.22437	1380.13599	463.74213	1602.53601	1449.62451	464.28384	1455.14636	1434.24292	503.38007	1127.20313	1456.14771	355.01874	1376.99768	1460.37634	319.75125	1200.63049	1359.83167	531.88409	1287.92798	1613.40051	424.72717	1405.36816	1683.35706	456.46918	1204.75452	1692.24109	475.02567	1093.69812	1708.41406	462.37048	943.03925	1657.27869	413.29840	826.19171	1698.64758	472.40118	823.77197	1695.78516	435.19055	739.85968	1292.67432	387.54459	1414.17395	1197.45325	419.38724	1218.14001	1184.86694	406.20520	1097.04541	1175.42102	366.00967	984.09241	1222.96741	279.79449	865.61792	1176.11975	327.37518	852.70831	1183.18799	273.58310	787.92920	1549.04175	328.16904	968.04553	1329.85840	326.95187	968.42096	1519.59314	487.05658	992.03412	1351.24353	477.32370	996.19885	1615.14709	336.54337	657.48572	1586.44299	285.54935	502.23230	1585.65955	302.36612	250.07208	1550.92798	291.59900	76.64143	1505.89709	331.33289	57.73740	1543.37378	147.39668	57.11013	1289.63159	408.82364	632.91791	1316.29871	423.45331	508.25964	1333.70923	509.58173	254.17105	1388.88232	549.47107	73.59195	1436.82275	589.17566	51.66343	1379.94690	400.00327	36.48694	1446.25195	434.66727	1703.65454															 
163	1.620	1508.45105	327.03360	1669.10828	1377.24634	325.93619	1653.57495	1508.60205	459.20969	1611.35095	1380.24268	456.54141	1601.73547	1449.57336	457.31342	1454.31165	1433.88574	496.06818	1126.22424	1456.21375	347.91907	1376.10059	1460.25684	312.48193	1199.81616	1359.44507	524.55188	1287.02661	1613.39209	417.91574	1404.25012	1682.61853	450.91141	1203.70837	1691.01123	470.47134	1092.76709	1706.66760	459.26047	941.93365	1655.05127	411.33563	824.73090	1696.54089	470.45270	822.80493	1693.17346	434.09909	738.39325	1292.66992	380.09058	1413.39990	1197.36230	412.21671	1217.39319	1184.81677	399.22415	1096.30688	1175.50513	359.09314	983.31274	1223.10254	273.07410	864.68805	1176.39063	320.51218	851.87164	1183.46619	266.97238	787.02612	1548.80896	320.59811	967.28943	1329.55762	319.40048	967.49567	1519.60144	479.05026	991.07892	1351.21338	470.22385	995.28912	1615.78394	329.51379	656.80548	1586.77466	278.56094	501.67389	1584.93018	287.95517	249.01694	1549.52710	271.29321	76.12857	1504.18066	310.32880	56.84573	1542.44507	126.41195	59.15107	1289.79724	403.27969	631.94019	1316.50085	418.40366	507.33401	1333.81116	507.13055	253.98547	1389.00781	548.96368	73.71022	1436.74634	588.93304	52.13263	1379.90869	399.75226	36.28746	1446.55823	427.60236	1702.78821															 
